<?xml version="1.0" standalone="no"?>
<!DOCTYPE svg PUBLIC "-//W3C//DTD SVG 20010904//EN"
 "http://www.w3.org/TR/2001/REC-SVG-20010904/DTD/svg10.dtd">
<svg version="1.0" xmlns="http://www.w3.org/2000/svg"
 width="512.000000pt" height="512.000000pt" viewBox="0 0 512.000000 512.000000"
 preserveAspectRatio="xMidYMid meet">
<metadata>
Created by potrace 1.16, written by Peter Selinger 2001-2019
</metadata>
<g transform="translate(0.000000,512.000000) scale(0.100000,-0.100000)"
fill="#000000" stroke="none">
<path d="M2405 5099 c-32 -11 -82 -36 -110 -54 -27 -19 -539 -524 -1136 -1122
-934 -936 -1089 -1096 -1112 -1144 -40 -85 -50 -139 -45 -247 3 -87 7 -105 41
-175 68 -144 194 -240 351 -268 37 -6 88 -9 112 -5 l44 6 0 -811 c0 -895 -2
-871 63 -994 67 -127 223 -246 360 -275 35 -7 235 -10 614 -8 l561 3 27 25
c57 53 55 31 55 665 l0 585 330 0 330 0 0 -585 c0 -634 -2 -612 55 -665 l27
-25 561 -3 c379 -2 579 1 614 8 137 29 293 148 360 275 65 123 63 99 63 994
l0 811 44 -6 c103 -15 259 38 348 116 175 154 212 431 83 624 -19 28 -169 186
-335 351 l-300 300 0 768 c0 832 3 793 -55 847 l-27 25 -382 3 -382 3 -35 -23
c-66 -45 -69 -59 -69 -383 l0 -290 -302 302 c-167 165 -322 312 -345 326 -110
69 -284 88 -408 46z m1695 -796 l0 -518 -165 165 -165 165 0 352 0 353 165 0
165 0 0 -517z m-1473 497 c36 -14 2148 -2124 2168 -2166 20 -42 19 -107 -2
-151 -18 -39 -71 -78 -120 -88 -77 -16 -51 -39 -1063 970 -525 524 -966 958
-979 965 -13 7 -45 12 -71 12 -26 0 -58 -5 -71 -12 -13 -7 -454 -441 -979
-965 -1012 -1009 -986 -986 -1063 -970 -49 10 -102 49 -120 88 -21 44 -22 109
-2 151 19 39 2131 2152 2165 2165 34 13 102 13 137 1z m785 -1687 l848 -848 0
-886 0 -885 -26 -52 c-28 -56 -65 -90 -130 -119 -35 -16 -82 -18 -471 -21
l-432 -3 -3 595 c-3 583 -3 595 -24 622 -11 15 -33 37 -48 48 -27 21 -38 21
-566 21 -528 0 -539 0 -566 -21 -15 -11 -37 -33 -48 -48 -21 -27 -21 -39 -24
-622 l-3 -595 -432 3 c-389 3 -436 5 -471 21 -65 29 -102 63 -130 119 l-26 52
0 885 0 886 847 847 c467 467 850 848 853 848 3 0 386 -381 852 -847z"/>
</g>
</svg>
