<?xml version="1.0" standalone="no"?>
<!DOCTYPE svg PUBLIC "-//W3C//DTD SVG 20010904//EN"
 "http://www.w3.org/TR/2001/REC-SVG-20010904/DTD/svg10.dtd">
<svg version="1.0" xmlns="http://www.w3.org/2000/svg"
 width="512.000000pt" height="512.000000pt" viewBox="0 0 512.000000 512.000000"
 preserveAspectRatio="xMidYMid meet">
<metadata>
Created by potrace 1.16, written by Peter Selinger 2001-2019
</metadata>
<g transform="translate(0.000000,512.000000) scale(0.100000,-0.100000)"
fill="#000000" stroke="none">
<path d="M170 4621 c-72 -22 -128 -71 -154 -133 -14 -33 -16 -206 -16 -1561
l0 -1524 23 -44 c31 -58 93 -105 159 -118 38 -8 738 -11 2413 -9 l2360 3 40
22 c51 27 90 68 109 115 14 33 16 206 16 1558 0 1352 -2 1525 -16 1558 -19 47
-58 88 -109 115 l-40 22 -2380 2 c-1309 1 -2391 -2 -2405 -6z m4670 -1546 l0
-1275 -2280 0 -2280 0 0 1275 0 1275 2280 0 2280 0 0 -1275z m-2279 -1493 c25
-22 31 -36 31 -67 0 -31 -6 -45 -31 -67 -95 -85 -216 48 -126 138 34 34 85 32
126 -4z"/>
<path d="M2420 3975 c-8 -2 -49 -9 -90 -15 -338 -55 -753 -301 -1104 -655
-117 -117 -145 -164 -146 -234 0 -75 30 -119 190 -274 347 -337 692 -539 1050
-614 105 -22 351 -24 460 -4 349 64 717 276 1065 613 79 77 154 155 165 173
11 19 23 56 27 84 10 85 -12 124 -148 260 -335 337 -701 562 -1049 642 -78 18
-374 35 -420 24z m335 -225 c126 -39 202 -86 300 -184 127 -128 183 -240 206
-412 50 -377 -229 -730 -619 -784 -314 -43 -641 163 -748 469 -67 192 -51 385
48 574 46 89 192 232 283 279 77 39 151 65 223 78 75 14 228 4 307 -20z"/>
<path d="M2445 3456 c-111 -35 -195 -107 -245 -210 -58 -117 -51 -268 17 -383
31 -53 109 -125 168 -153 104 -50 246 -50 352 1 74 35 165 132 193 204 28 75
36 176 20 245 l-12 52 -37 -35 c-48 -46 -71 -57 -121 -57 -153 0 -228 182
-120 290 l39 39 -37 11 c-50 14 -168 12 -217 -4z"/>
<path d="M2000 1065 c-39 -87 -105 -187 -168 -256 l-52 -57 -123 -3 c-117 -4
-126 -6 -172 -34 -79 -49 -120 -160 -76 -204 l21 -21 1130 0 1130 0 21 21 c46
46 -2 168 -84 211 -35 18 -62 23 -162 26 -119 4 -120 4 -153 35 -72 69 -212
289 -212 334 0 10 -108 13 -535 13 l-536 0 -29 -65z"/>
</g>
</svg>
