<?xml version="1.0" standalone="no"?>
<!DOCTYPE svg PUBLIC "-//W3C//DTD SVG 20010904//EN"
 "http://www.w3.org/TR/2001/REC-SVG-20010904/DTD/svg10.dtd">
<svg version="1.0" xmlns="http://www.w3.org/2000/svg"
 width="512.000000pt" height="512.000000pt" viewBox="0 0 512.000000 512.000000"
 preserveAspectRatio="xMidYMid meet">
<metadata>
Created by potrace 1.16, written by Peter Selinger 2001-2019
</metadata>
<g transform="translate(0.000000,512.000000) scale(0.100000,-0.100000)"
fill="#000000" stroke="none">
<path d="M115 5103 c-16 -8 -43 -27 -58 -42 -61 -56 -57 137 -57 -2478 0
-2214 1 -2400 17 -2423 30 -46 68 -82 105 -101 36 -19 95 -19 2438 -19 2343 0
2402 0 2438 19 37 19 75 55 105 101 16 23 17 209 17 2426 l0 2402 -33 44 c-18
23 -51 53 -72 65 l-40 23 -2415 -1 c-2181 0 -2418 -1 -2445 -16z m2498 -2367
c18 -7 234 -147 481 -311 309 -206 454 -308 467 -329 18 -29 19 -55 19 -366 0
-314 -1 -337 -20 -367 -13 -23 -148 -118 -466 -328 -246 -163 -460 -303 -475
-311 -36 -18 -82 -18 -118 1 -16 8 -230 147 -475 310 -316 209 -453 306 -467
328 -18 30 -19 54 -19 367 0 314 1 337 20 367 13 23 149 118 467 329 246 163
462 303 478 310 39 17 68 17 108 0z"/>
<path d="M2183 2222 l-373 -247 0 -245 1 -245 62 -42 c34 -22 203 -134 375
-248 l312 -206 375 248 375 248 0 245 0 245 -371 245 c-205 135 -375 246 -378
247 -3 1 -174 -110 -378 -245z"/>
</g>
</svg>
