<?xml version="1.0" standalone="no"?>
<!DOCTYPE svg PUBLIC "-//W3C//DTD SVG 20010904//EN"
 "http://www.w3.org/TR/2001/REC-SVG-20010904/DTD/svg10.dtd">
<svg version="1.0" xmlns="http://www.w3.org/2000/svg"
 width="512.000000pt" height="512.000000pt" viewBox="0 0 512.000000 512.000000"
 preserveAspectRatio="xMidYMid meet">
<metadata>
Created by potrace 1.16, written by Peter Selinger 2001-2019
</metadata>
<g transform="translate(0.000000,512.000000) scale(0.100000,-0.100000)"
fill="#000000" stroke="none">
<path d="M2260 5100 c-773 -131 -1378 -684 -1565 -1430 -46 -187 -58 -304 -52
-518 10 -352 90 -633 298 -1062 221 -453 507 -888 904 -1375 230 -282 573
-662 629 -696 42 -26 130 -26 172 0 56 34 399 414 629 696 397 487 683 922
904 1375 141 291 220 513 272 765 30 148 37 455 15 607 -66 434 -248 799 -546
1098 -294 293 -647 472 -1070 541 -153 25 -439 24 -590 -1z m550 -979 c327
-95 576 -345 672 -677 20 -68 23 -102 23 -244 0 -142 -3 -176 -23 -244 -97
-334 -345 -583 -677 -678 -69 -20 -103 -23 -245 -23 -142 0 -176 3 -245 23
-332 95 -580 344 -677 678 -20 68 -23 102 -23 244 0 142 3 176 23 244 102 354
374 611 728 690 102 23 344 16 444 -13z"/>
</g>
</svg>
