<?xml version="1.0" standalone="no"?>
<!DOCTYPE svg PUBLIC "-//W3C//DTD SVG 20010904//EN"
 "http://www.w3.org/TR/2001/REC-SVG-20010904/DTD/svg10.dtd">
<svg version="1.0" xmlns="http://www.w3.org/2000/svg"
 width="512.000000pt" height="512.000000pt" viewBox="0 0 512.000000 512.000000"
 preserveAspectRatio="xMidYMid meet">
<metadata>
Created by potrace 1.16, written by Peter Selinger 2001-2019
</metadata>
<g transform="translate(0.000000,512.000000) scale(0.100000,-0.100000)"
fill="#6f0808" stroke="none">
<path d="M784 4141 c-221 -63 -392 -238 -448 -458 -15 -55 -16 -181 -14 -1145
l3 -1083 26 -72 c67 -183 214 -328 399 -395 l65 -23 1078 -3 c1205 -3 1144 -6
1286 68 144 75 255 202 309 353 21 58 27 95 30 193 l4 122 289 -190 c161 -105
313 -198 342 -208 233 -82 497 30 605 257 l37 78 3 907 c2 899 2 908 -19 970
-75 223 -307 365 -538 329 -99 -15 -141 -37 -441 -235 -140 -93 -260 -170
-266 -173 -8 -3 -13 31 -16 114 -3 89 -10 134 -27 183 -64 183 -210 332 -391
398 l-75 27 -1090 2 c-1015 2 -1094 1 -1151 -16z m2166 -487 c19 -11 45 -35
57 -54 22 -32 23 -42 23 -239 0 -188 -2 -209 -20 -239 -59 -97 -192 -96 -264
1 -17 23 -21 46 -24 131 l-4 103 -104 6 c-115 5 -155 22 -186 75 -24 41 -24
128 1 165 44 68 80 76 311 74 157 -2 179 -4 210 -23z m-1575 -14 c56 -52 71
-128 39 -196 -28 -59 -72 -77 -196 -82 l-108 -5 0 -101 c0 -82 -4 -107 -20
-133 -52 -87 -156 -101 -235 -32 -48 43 -58 97 -54 299 4 185 13 213 79 258
34 23 39 23 251 20 216 -3 218 -3 244 -28z m688 -629 c113 -39 210 -119 269
-221 78 -134 78 -326 0 -460 -87 -150 -239 -240 -408 -240 -176 0 -328 88
-416 240 -78 134 -78 326 0 460 58 101 163 186 270 221 79 25 211 25 285 0z
m-1035 -955 c67 -35 92 -93 92 -217 l0 -76 105 -5 c82 -5 111 -10 138 -27 90
-56 89 -207 -2 -263 -34 -22 -46 -23 -236 -23 -224 0 -246 6 -292 75 -22 32
-23 42 -23 239 0 188 2 209 20 239 40 65 132 92 198 58z m1930 -6 c67 -41 72
-61 72 -291 0 -197 -1 -207 -23 -239 -46 -69 -68 -75 -292 -75 -182 0 -203 2
-233 20 -49 29 -72 73 -72 135 0 62 21 103 68 132 26 16 56 21 136 25 l104 6
4 103 c4 114 14 138 78 182 43 29 112 30 158 2z"/>
<path d="M1832 2700 c-48 -30 -72 -75 -72 -140 0 -100 60 -160 160 -160 100 0
160 60 160 160 0 100 -60 160 -160 160 -37 0 -66 -6 -88 -20z"/>
</g>
</svg>
