<?xml version="1.0" standalone="no"?>
<!DOCTYPE svg PUBLIC "-//W3C//DTD SVG 20010904//EN"
 "http://www.w3.org/TR/2001/REC-SVG-20010904/DTD/svg10.dtd">
<svg version="1.0" xmlns="http://www.w3.org/2000/svg"
 width="512.000000pt" height="512.000000pt" viewBox="0 0 512.000000 512.000000"
 preserveAspectRatio="xMidYMid meet">
<metadata>
Created by potrace 1.16, written by Peter Selinger 2001-2019
</metadata>
<g transform="translate(0.000000,512.000000) scale(0.100000,-0.100000)"
fill="#6f0808" stroke="none">
<path d="M2060 4487 c0 -702 1 -690 -66 -818 -44 -84 -147 -185 -232 -228
-119 -60 -125 -61 -814 -61 l-628 0 0 -1457 c0 -1603 -4 -1502 62 -1633 41
-82 142 -184 224 -227 126 -67 -5 -63 1954 -63 1562 0 1783 2 1835 15 184 48
340 206 390 395 22 83 22 4217 0 4300 -50 190 -205 346 -390 395 -52 13 -208
15 -1197 15 l-1138 0 0 -633z m1701 -1970 c90 -60 88 -172 -5 -241 -27 -21
-31 -21 -1196 -21 -1165 0 -1169 0 -1196 21 -93 69 -95 181 -5 241 l34 23
1167 0 1167 0 34 -23z m-17 -631 c108 -45 109 -204 2 -255 -42 -21 -52 -21
-1186 -21 -1123 0 -1144 0 -1185 20 -82 40 -107 137 -55 211 44 61 -21 58
1238 59 961 0 1158 -2 1186 -14z m1 -646 c109 -53 109 -202 1 -254 -31 -14
-144 -16 -1186 -16 -1042 0 -1155 2 -1186 16 -108 51 -108 200 0 254 40 20 58
20 1185 20 1124 0 1145 0 1186 -20z"/>
<path d="M1080 4355 l-685 -685 580 0 c369 0 594 4 617 10 58 17 120 69 151
130 l27 55 -2 588 -3 587 -685 -685z"/>
</g>
</svg>
