<?xml version="1.0" standalone="no"?>
<!DOCTYPE svg PUBLIC "-//W3C//DTD SVG 20010904//EN"
 "http://www.w3.org/TR/2001/REC-SVG-20010904/DTD/svg10.dtd">
<svg version="1.0" xmlns="http://www.w3.org/2000/svg"
 width="512.000000pt" height="512.000000pt" viewBox="0 0 512.000000 512.000000"
 preserveAspectRatio="xMidYMid meet">
<metadata>
Created by potrace 1.16, written by Peter Selinger 2001-2019
</metadata>
<g transform="translate(0.000000,512.000000) scale(0.100000,-0.100000)"
fill="#000000" stroke="none">
<path d="M2690 4570 c-19 -5 -439 -119 -933 -254 -606 -165 -918 -255 -961
-276 -123 -61 -228 -179 -284 -318 l-27 -67 0 -1365 0 -1365 29 -70 c61 -147
151 -246 288 -315 42 -21 101 -43 130 -49 38 -8 523 -11 1658 -9 l1605 3 70
29 c182 76 313 221 360 402 23 87 23 1641 0 1728 -34 130 -126 262 -234 334
-33 22 -310 146 -650 292 l-591 254 0 366 c0 305 -3 375 -16 420 -45 152 -178
257 -336 265 -40 3 -89 0 -108 -5z m112 -337 c17 -15 18 -82 18 -1725 l0
-1708 -155 0 -154 0 -3 398 -3 397 -29 60 c-38 76 -105 143 -181 181 l-60 29
-420 0 -420 0 -57 -27 c-76 -35 -138 -95 -179 -170 l-34 -63 -3 -403 -3 -403
-57 6 c-112 14 -184 62 -229 153 l-28 57 0 1275 0 1275 28 57 c32 66 77 109
138 132 41 15 1783 494 1803 495 5 1 18 -6 28 -16z m878 -1297 c278 -120 521
-230 540 -245 19 -15 49 -54 65 -86 l30 -59 0 -765 0 -766 -28 -57 c-31 -64
-70 -101 -137 -132 -43 -20 -62 -21 -522 -24 l-478 -3 0 1182 c0 941 3 1180
13 1176 6 -3 239 -102 517 -221z m-1516 -1412 c14 -13 16 -61 16 -370 l0 -354
-370 0 -371 0 3 353 c2 282 6 357 17 370 12 15 49 17 352 17 294 0 340 -2 353
-16z"/>
<path d="M1399 3336 c-93 -63 -90 -216 4 -275 33 -20 46 -21 409 -21 372 0
375 0 408 23 57 38 75 71 75 137 0 66 -18 99 -75 138 -33 22 -35 22 -409 22
l-376 0 -36 -24z"/>
<path d="M1399 2696 c-93 -63 -90 -216 4 -275 33 -20 46 -21 409 -21 372 0
375 0 408 23 57 38 75 71 75 137 0 66 -18 99 -75 138 -33 22 -35 22 -409 22
l-376 0 -36 -24z"/>
<path d="M3550 2278 c-50 -26 -90 -89 -90 -143 0 -41 38 -114 73 -139 25 -19
46 -21 188 -24 150 -3 161 -2 199 19 57 32 80 74 80 141 0 61 -23 105 -73 142
-25 19 -45 21 -180 24 -142 3 -155 1 -197 -20z"/>
<path d="M3550 1638 c-50 -26 -90 -89 -90 -143 0 -41 38 -114 73 -139 25 -19
46 -21 188 -24 150 -3 161 -2 199 19 57 32 80 74 80 141 0 61 -23 105 -73 142
-25 19 -45 21 -180 24 -142 3 -155 1 -197 -20z"/>
</g>
</svg>
