<?xml version="1.0" standalone="no"?>
<!DOCTYPE svg PUBLIC "-//W3C//DTD SVG 20010904//EN"
 "http://www.w3.org/TR/2001/REC-SVG-20010904/DTD/svg10.dtd">
<svg version="1.0" xmlns="http://www.w3.org/2000/svg"
 width="512.000000pt" height="512.000000pt" viewBox="0 0 512.000000 512.000000"
 preserveAspectRatio="xMidYMid meet">
<metadata>
Created by potrace 1.16, written by Peter Selinger 2001-2019
</metadata>
<g transform="translate(0.000000,512.000000) scale(0.100000,-0.100000)"
fill="#6f0808" stroke="none">
<path d="M2480 5103 c-14 -9 -77 -66 -140 -128 -239 -231 -474 -383 -775 -500
-213 -84 -436 -130 -695 -145 -180 -10 -211 -21 -244 -82 -16 -31 -17 -95 -14
-963 4 -911 4 -933 26 -1055 58 -321 136 -560 273 -834 316 -629 857 -1113
1529 -1368 101 -38 148 -37 263 8 911 357 1562 1128 1756 2080 48 236 51 303
51 1232 0 814 -1 876 -17 904 -35 58 -66 68 -245 78 -567 33 -1054 246 -1463
641 -66 63 -131 123 -145 132 -33 23 -127 23 -160 0z m210 -1198 c150 -9 311
-56 470 -135 378 -190 652 -559 725 -976 19 -112 19 -336 0 -448 -98 -559
-542 -1003 -1102 -1101 -114 -20 -332 -20 -446 0 -416 73 -787 347 -974 719
-56 111 -108 265 -128 380 -19 114 -20 337 0 450 106 605 618 1071 1225 1115
52 4 106 6 120 5 14 -2 63 -6 110 -9z"/>
<path d="M2351 3605 c-399 -90 -691 -361 -808 -750 -25 -85 -27 -102 -27 -285
0 -184 1 -200 27 -285 111 -364 369 -622 732 -732 85 -25 101 -27 285 -27 183
0 201 2 285 27 360 108 621 369 732 732 26 85 27 101 27 285 0 184 -1 200 -27
285 -91 297 -278 524 -542 655 -165 82 -249 102 -450 106 -122 3 -188 -1 -234
-11z m886 -615 c18 -10 39 -33 48 -49 18 -35 20 -103 4 -134 -16 -31 -828
-845 -861 -863 -32 -17 -101 -18 -131 -3 -31 16 -445 429 -463 461 -18 35 -18
101 1 139 31 59 128 89 188 58 12 -6 93 -81 180 -167 l157 -157 358 356 c196
196 366 362 377 368 33 17 107 13 142 -9z"/>
</g>
</svg>
