<?xml version="1.0" standalone="no"?>
<!DOCTYPE svg PUBLIC "-//W3C//DTD SVG 20010904//EN"
 "http://www.w3.org/TR/2001/REC-SVG-20010904/DTD/svg10.dtd">
<svg version="1.0" xmlns="http://www.w3.org/2000/svg"
 width="512.000000pt" height="512.000000pt" viewBox="0 0 512.000000 512.000000"
 preserveAspectRatio="xMidYMid meet">
<metadata>
Created by potrace 1.16, written by Peter Selinger 2001-2019
</metadata>
<g transform="translate(0.000000,512.000000) scale(0.100000,-0.100000)"
fill="#6f0808" stroke="none">
<path d="M2166 5091 c-57 -38 -66 -64 -66 -198 l0 -123 -27 -6 c-240 -53 -521
-166 -701 -280 -29 -19 -56 -34 -60 -34 -4 0 -39 32 -77 71 -39 39 -82 77 -97
85 -32 17 -110 18 -141 3 -31 -16 -475 -459 -493 -491 -18 -35 -18 -111 0
-146 8 -15 46 -58 85 -97 39 -38 71 -73 71 -77 0 -4 -15 -31 -34 -60 -114
-180 -227 -461 -280 -700 l-6 -28 -123 0 c-134 0 -160 -9 -198 -66 -18 -27
-19 -53 -19 -384 0 -331 1 -357 19 -384 38 -57 64 -66 198 -66 l123 0 6 -27
c50 -232 167 -524 280 -701 19 -29 34 -56 34 -60 0 -4 -32 -39 -71 -77 -39
-39 -77 -82 -85 -97 -17 -32 -18 -110 -3 -141 16 -31 459 -475 491 -493 35
-18 111 -18 146 0 15 8 58 46 97 85 38 39 73 71 77 71 4 0 31 -15 60 -34 180
-114 461 -227 701 -280 l27 -6 0 -123 c0 -134 9 -160 66 -198 27 -18 53 -19
384 -19 331 0 357 1 384 19 15 10 37 32 47 47 18 28 19 58 19 622 0 325 -3
592 -7 592 -5 0 -37 -9 -72 -20 -163 -51 -417 -66 -594 -35 -491 86 -893 434
-1052 909 -47 141 -65 254 -65 416 0 158 17 268 61 408 152 473 563 831 1056
917 177 31 431 16 594 -35 35 -11 67 -20 72 -20 4 0 7 267 7 593 0 563 -1 593
-19 621 -10 15 -32 37 -47 47 -27 18 -53 19 -384 19 -331 0 -357 -1 -384 -19z"/>
<path d="M3893 5046 c-92 -30 -174 -98 -228 -191 l-27 -45 -169 0 -169 0 0
-150 0 -150 169 0 168 0 37 -59 c43 -71 100 -121 176 -159 50 -25 65 -27 170
-27 107 0 119 2 175 29 77 38 153 114 191 191 27 56 29 68 29 175 0 107 -2
119 -29 175 -38 77 -114 153 -191 190 -52 26 -72 30 -160 32 -64 2 -115 -2
-142 -11z"/>
<path d="M4583 4191 c-105 -39 -180 -107 -231 -211 -25 -51 -27 -65 -28 -180
l-1 -125 -158 -132 -159 -133 -353 0 -353 0 0 -150 0 -150 413 0 c372 0 415 2
437 17 14 9 105 84 202 165 97 81 182 148 188 148 6 0 34 -7 61 -16 79 -26
219 -16 295 21 76 37 152 114 190 190 27 56 29 68 29 175 0 107 -2 119 -29
175 -38 77 -114 153 -191 190 -52 26 -73 30 -160 33 -79 2 -111 -2 -152 -17z"/>
<path d="M2341 3595 c-399 -90 -691 -361 -808 -750 -25 -85 -27 -102 -27 -285
0 -184 1 -200 27 -285 69 -225 186 -401 359 -539 97 -78 247 -155 373 -193 83
-25 104 -27 280 -27 201 -1 241 5 398 64 l57 21 0 959 0 959 -56 21 c-143 53
-193 62 -369 66 -124 3 -187 0 -234 -11z"/>
<path d="M4593 2946 c-92 -30 -174 -98 -228 -191 l-27 -45 -519 0 -519 0 0
-150 0 -150 519 0 518 0 37 -59 c43 -71 100 -121 176 -159 50 -25 65 -27 170
-27 107 0 119 2 175 29 77 38 153 114 191 191 27 56 29 68 29 175 0 107 -2
119 -29 175 -38 77 -114 153 -191 190 -52 26 -72 30 -160 32 -64 2 -115 -2
-142 -11z"/>
<path d="M3300 1860 l0 -150 353 0 353 0 159 -133 158 -132 1 -125 c1 -117 3
-129 30 -185 38 -77 114 -153 191 -191 56 -27 68 -29 175 -29 107 0 119 2 175
29 77 38 153 114 191 191 27 56 29 68 29 175 0 107 -2 119 -29 175 -38 76
-114 153 -190 190 -76 37 -216 47 -295 21 -27 -9 -55 -16 -61 -16 -6 0 -91 67
-188 148 -97 81 -188 156 -202 165 -22 15 -65 17 -437 17 l-413 0 0 -150z"/>
<path d="M3893 846 c-92 -30 -174 -98 -228 -191 l-27 -45 -169 0 -169 0 0
-150 0 -150 169 0 168 0 37 -59 c43 -71 100 -121 176 -159 50 -25 65 -27 170
-27 107 0 119 2 175 29 77 38 153 114 191 191 27 56 29 68 29 175 0 107 -2
119 -29 175 -38 77 -114 153 -191 190 -52 26 -72 30 -160 32 -64 2 -115 -2
-142 -11z"/>
</g>
</svg>
