<?xml version="1.0" encoding="UTF-8"?> <svg xmlns="http://www.w3.org/2000/svg" xmlns:xlink="http://www.w3.org/1999/xlink" id="Layer_1" data-name="Layer 1" viewBox="0 0 2048 1277.56"><defs><style> .cls-1 { fill: #737372; } .cls-2 { fill: #5f5f5e; } .cls-3 { clip-path: url(#clippath-4); } .cls-3, .cls-4, .cls-5, .cls-6, .cls-7, .cls-8 { fill: none; } .cls-9 { fill: #6e6e6d; } .cls-10 { fill: #343434; } .cls-11 { fill: url(#linear-gradient-2); } .cls-12 { fill: #262626; } .cls-4 { clip-path: url(#clippath-2); } .cls-13 { fill: #767675; } .cls-14 { fill: #fff; } .cls-15 { fill: #3d3d3d; } .cls-16 { fill: #535352; } .cls-17 { fill: #3f3f3f; } .cls-18 { fill: #646463; } .cls-19 { fill: #363636; } .cls-20 { fill: #5e5e5d; } .cls-21 { fill: #525251; } .cls-22 { fill: #4b4b4b; } .cls-23 { fill: #222; } .cls-24 { fill: #555554; } .cls-25 { fill: #575756; } .cls-26 { fill: #4a4a4a; } .cls-27 { fill: #3e3e3e; } .cls-28 { fill: #323232; } .cls-29 { fill: #5d5d5c; } .cls-30 { fill: #303030; } .cls-31 { fill: #393939; } .cls-32 { fill: #232323; } .cls-33 { fill: #2f2f2f; } .cls-34 { fill: #727271; } .cls-35 { fill: #313131; } .cls-36 { fill: #707070; } .cls-37 { fill: #333; } .cls-38 { fill: #6c6c6b; } .cls-39 { fill: #565655; } .cls-40 { fill: #2a2a2a; } .cls-41 { fill: #282828; } .cls-42 { fill: #444; } .cls-43 { fill: #5a5a5a; } .cls-44 { fill: #242424; } .cls-45 { fill: #272727; } .cls-46 { fill: #6f6f6f; } .cls-47 { fill: #424242; } .cls-48 { fill: #414141; } .cls-49 { fill: #2b2b2b; } .cls-50 { fill: #3a3a3a; } .cls-51 { fill: #747473; } .cls-52 { fill: #757574; } .cls-53 { fill: #3b3b3b; } .cls-54 { fill: #696968; } .cls-55 { fill: #464646; } .cls-56 { fill: #616160; } .cls-57 { fill: #636362; } .cls-58 { fill: #626261; } .cls-5 { clip-path: url(#clippath-3); } .cls-59 { fill: #6f6f6e; } .cls-60 { fill: #494949; } .cls-61 { fill: #2c2c2c; } .cls-62 { fill: #50504f; } .cls-63 { fill: #2e2e2e; } .cls-64 { fill: #373737; } .cls-65 { fill: #353535; } .cls-66 { fill: #474747; } .cls-67 { fill: #686867; } .cls-68 { fill: #676766; } .cls-69 { fill: #585857; } .cls-70 { fill: #60605f; } .cls-71 { fill: #2d2d2d; } .cls-72 { fill: #383838; } .cls-73 { fill: #6b6b6a; } .cls-74 { fill: #292929; } .cls-75 { fill: #4f4f4e; } .cls-76 { fill: #656564; } .cls-77 { fill: #252525; } .cls-78 { fill: #4e4e4d; } .cls-7 { clip-path: url(#clippath); } .cls-79 { fill: #434343; } .cls-80 { fill: #515150; } .cls-81 { fill: #6a6a69; } .cls-82 { fill: #d51116; } .cls-83 { fill: #454545; } .cls-84 { fill: #545453; } .cls-8 { clip-path: url(#clippath-1); } .cls-85 { fill: url(#linear-gradient); } .cls-86 { fill: #484848; } .cls-87 { fill: #717170; } .cls-88 { fill: #5c5c5b; } .cls-89 { fill: #595959; } .cls-90 { fill: #6d6d6c; } .cls-91 { fill: #5b5b5a; } .cls-92 { fill: #4d4d4c; } .cls-93 { fill: #404040; } .cls-94 { fill: #3c3c3c; } .cls-95 { fill: #666665; } .cls-96 { fill: #595958; } </style><clipPath id="clippath"><path class="cls-6" d="m2101.19,638.74c-105.11,341.44,253.37,618.19,800.65,618.19s1076.03-276.75,1181-618.12c105.01-341.44-253.43-618.19-800.59-618.19s-1076.05,276.75-1181.07,618.12"></path></clipPath><clipPath id="clippath-1"><path class="cls-6" d="m2122.44,638.74c-102.79,334.07,247.93,604.97,783.43,604.97s1053.02-270.9,1155.66-604.9c102.82-334.11-247.9-604.97-783.4-604.97s-1052.86,270.86-1155.69,604.9"></path></clipPath><clipPath id="clippath-2"><polygon class="cls-6" points="4081.65 -379.25 4397.44 1197.02 2102.44 1656.79 1786.59 80.59 4081.65 -379.25"></polygon></clipPath><clipPath id="clippath-3"><path class="cls-6" d="m26.67,638.74c-105.8,343.69,255.04,622.26,805.92,622.26s1083.11-278.57,1188.78-622.18C2127.07,295.13,1766.26,16.56,1215.51,16.56S132.37,295.13,26.67,638.74"></path></clipPath><linearGradient id="linear-gradient" x1="6226.19" y1="-193.22" x2="6247.38" y2="-193.22" gradientTransform="translate(-51541.83 -350771.73) rotate(79.72) scale(56.94 -56.94)" gradientUnits="userSpaceOnUse"><stop offset="0" stop-color="#da0e16"></stop><stop offset="1" stop-color="#941915"></stop></linearGradient><clipPath id="clippath-4"><path class="cls-6" d="m48.06,638.74c-103.47,336.27,249.56,608.95,788.59,608.95s1059.95-272.69,1163.26-608.88C2103.41,302.5,1750.37,29.86,1211.35,29.86S151.56,302.5,48.06,638.74"></path></clipPath><linearGradient id="linear-gradient-2" x1="6224.76" y1="-196.25" x2="6245.95" y2="-196.25" gradientTransform="translate(-56067.85 -339561.36) rotate(78.67) scale(55.3 -55.3)" gradientUnits="userSpaceOnUse"><stop offset="0" stop-color="#e87751"></stop><stop offset=".16" stop-color="#e87751"></stop><stop offset="1" stop-color="#581e15"></stop></linearGradient></defs><g><g class="cls-7"><polygon points="4118.06 -364.29 4405 1217.55 2065.9 1641.88 1778.99 60.02 4118.06 -364.29"></polygon></g><g class="cls-8"><g class="cls-4"><polygon class="cls-13" points="4397.44 -208.96 1786.59 314.13 1786.59 -379.25 4397.44 -379.25 4397.44 -208.96"></polygon><polygon class="cls-13" points="4397.44 -203.93 1786.59 319.16 1786.59 314.13 4397.44 -208.96 4397.44 -203.93"></polygon><polygon class="cls-52" points="4397.44 -198.9 1786.59 324.19 1786.59 319.16 4397.44 -203.93 4397.44 -198.9"></polygon><polygon class="cls-51" points="4397.44 -193.87 1786.59 329.22 1786.59 324.19 4397.44 -198.9 4397.44 -193.87"></polygon><polygon class="cls-1" points="4397.44 -188.84 1786.59 334.25 1786.59 329.22 4397.44 -193.87 4397.44 -188.84"></polygon><polygon class="cls-34" points="4397.44 -183.81 1786.59 339.28 1786.59 334.25 4397.44 -188.84 4397.44 -183.81"></polygon><polygon class="cls-87" points="4397.44 -178.78 1786.59 344.3 1786.59 339.28 4397.44 -183.81 4397.44 -178.78"></polygon><polygon class="cls-36" points="4397.44 -173.76 1786.59 349.33 1786.59 344.3 4397.44 -178.78 4397.44 -173.76"></polygon><polygon class="cls-46" points="4397.44 -168.73 1786.59 354.36 1786.59 349.33 4397.44 -173.76 4397.44 -168.73"></polygon><polygon class="cls-59" points="4397.44 -163.7 1786.59 359.39 1786.59 354.36 4397.44 -168.73 4397.44 -163.7"></polygon><polygon class="cls-9" points="4397.44 -158.67 1786.59 364.42 1786.59 359.39 4397.44 -163.7 4397.44 -158.67"></polygon><polygon class="cls-90" points="4397.44 -153.64 1786.59 369.45 1786.59 364.42 4397.44 -158.67 4397.44 -153.64"></polygon><polygon class="cls-38" points="4397.44 -148.61 1786.59 374.48 1786.59 369.45 4397.44 -153.64 4397.44 -148.61"></polygon><polygon class="cls-73" points="4397.44 -143.58 1786.59 379.51 1786.59 374.48 4397.44 -148.61 4397.44 -143.58"></polygon><polygon class="cls-81" points="4397.44 -138.55 1786.59 384.54 1786.59 379.51 4397.44 -143.58 4397.44 -138.55"></polygon><polygon class="cls-54" points="4397.44 -133.52 1786.59 389.56 1786.59 384.54 4397.44 -138.55 4397.44 -133.52"></polygon><polygon class="cls-67" points="4397.44 -128.49 1786.59 394.59 1786.59 389.56 4397.44 -133.52 4397.44 -128.49"></polygon><polygon class="cls-68" points="4397.44 -123.47 1786.59 399.62 1786.59 394.59 4397.44 -128.49 4397.44 -123.47"></polygon><polygon class="cls-95" points="4397.44 -118.44 1786.59 404.65 1786.59 399.62 4397.44 -123.47 4397.44 -118.44"></polygon><polygon class="cls-76" points="4397.44 -113.41 1786.59 409.68 1786.59 404.65 4397.44 -118.44 4397.44 -113.41"></polygon><polygon class="cls-18" points="4397.44 -108.38 1786.59 414.71 1786.59 409.68 4397.44 -113.41 4397.44 -108.38"></polygon><polygon class="cls-57" points="4397.44 -103.35 1786.59 419.74 1786.59 414.71 4397.44 -108.38 4397.44 -103.35"></polygon><polygon class="cls-58" points="4397.44 -98.32 1786.59 424.77 1786.59 419.74 4397.44 -103.35 4397.44 -98.32"></polygon><polygon class="cls-56" points="4397.44 -93.29 1786.59 429.8 1786.59 424.77 4397.44 -98.32 4397.44 -93.29"></polygon><polygon class="cls-70" points="4397.44 -88.26 1786.59 434.83 1786.59 429.8 4397.44 -93.29 4397.44 -88.26"></polygon><polygon class="cls-2" points="4397.44 -83.23 1786.59 439.85 1786.59 434.83 4397.44 -88.26 4397.44 -83.23"></polygon><polygon class="cls-20" points="4397.44 -78.21 1786.59 444.88 1786.59 439.85 4397.44 -83.23 4397.44 -78.21"></polygon><polygon class="cls-29" points="4397.44 -73.18 1786.59 449.91 1786.59 444.88 4397.44 -78.21 4397.44 -73.18"></polygon><polygon class="cls-88" points="4397.44 -68.15 1786.59 454.94 1786.59 449.91 4397.44 -73.18 4397.44 -68.15"></polygon><polygon class="cls-91" points="4397.44 -63.12 1786.59 459.97 1786.59 454.94 4397.44 -68.15 4397.44 -63.12"></polygon><polygon class="cls-43" points="4397.44 -58.09 1786.59 465 1786.59 459.97 4397.44 -63.12 4397.44 -58.09"></polygon><polygon class="cls-89" points="4397.44 -53.06 1786.59 470.03 1786.59 465 4397.44 -58.09 4397.44 -53.06"></polygon><polygon class="cls-96" points="4397.44 -48.03 1786.59 475.06 1786.59 470.03 4397.44 -53.06 4397.44 -48.03"></polygon><polygon class="cls-69" points="4397.44 -43 1786.59 480.09 1786.59 475.06 4397.44 -48.03 4397.44 -43"></polygon><polygon class="cls-25" points="4397.44 -37.97 1786.59 485.12 1786.59 480.09 4397.44 -43 4397.44 -37.97"></polygon><polygon class="cls-39" points="4397.44 -32.94 1786.59 490.14 1786.59 485.12 4397.44 -37.97 4397.44 -32.94"></polygon><polygon class="cls-24" points="4397.44 -27.92 1786.59 495.17 1786.59 490.14 4397.44 -32.94 4397.44 -27.92"></polygon><polygon class="cls-84" points="4397.44 -22.89 1786.59 500.2 1786.59 495.17 4397.44 -27.92 4397.44 -22.89"></polygon><polygon class="cls-16" points="4397.44 -17.86 1786.59 505.23 1786.59 500.2 4397.44 -22.89 4397.44 -17.86"></polygon><polygon class="cls-21" points="4397.44 -12.83 1786.59 510.26 1786.59 505.23 4397.44 -17.86 4397.44 -12.83"></polygon><polygon class="cls-80" points="4397.44 -7.8 1786.59 515.29 1786.59 510.26 4397.44 -12.83 4397.44 -7.8"></polygon><polygon class="cls-62" points="4397.44 -2.77 1786.59 520.32 1786.59 515.29 4397.44 -7.8 4397.44 -2.77"></polygon><polygon class="cls-75" points="4397.44 2.26 1786.59 525.35 1786.59 520.32 4397.44 -2.77 4397.44 2.26"></polygon><polygon class="cls-78" points="4397.44 7.29 1786.59 530.38 1786.59 525.35 4397.44 2.26 4397.44 7.29"></polygon><polygon class="cls-92" points="4397.44 12.32 1786.59 535.4 1786.59 530.38 4397.44 7.29 4397.44 12.32"></polygon><polygon class="cls-22" points="4397.44 17.34 1786.59 540.43 1786.59 535.4 4397.44 12.32 4397.44 17.34"></polygon><polygon class="cls-26" points="4397.44 22.37 1786.59 545.46 1786.59 540.43 4397.44 17.34 4397.44 22.37"></polygon><polygon class="cls-60" points="4397.44 27.4 1786.59 550.49 1786.59 545.46 4397.44 22.37 4397.44 27.4"></polygon><polygon class="cls-60" points="4397.44 32.43 1786.59 555.52 1786.59 550.49 4397.44 27.4 4397.44 32.43"></polygon><polygon class="cls-86" points="4397.44 37.46 1786.59 560.55 1786.59 555.52 4397.44 32.43 4397.44 37.46"></polygon><polygon class="cls-66" points="4397.44 42.49 1786.59 565.58 1786.59 560.55 4397.44 37.46 4397.44 42.49"></polygon><polygon class="cls-55" points="4397.44 47.52 1786.59 570.61 1786.59 565.58 4397.44 42.49 4397.44 47.52"></polygon><polygon class="cls-83" points="4397.44 52.55 1786.59 575.64 1786.59 570.61 4397.44 47.52 4397.44 52.55"></polygon><polygon class="cls-42" points="4397.44 57.58 1786.59 580.67 1786.59 575.64 4397.44 52.55 4397.44 57.58"></polygon><polygon class="cls-79" points="4397.44 62.61 1786.59 585.69 1786.59 580.67 4397.44 57.58 4397.44 62.61"></polygon><polygon class="cls-47" points="4397.44 67.63 1786.59 590.72 1786.59 585.69 4397.44 62.61 4397.44 67.63"></polygon><polygon class="cls-48" points="4397.44 72.66 1786.59 595.75 1786.59 590.72 4397.44 67.63 4397.44 72.66"></polygon><polygon class="cls-93" points="4397.44 77.69 1786.59 600.78 1786.59 595.75 4397.44 72.66 4397.44 77.69"></polygon><polygon class="cls-17" points="4397.44 82.72 1786.59 605.81 1786.59 600.78 4397.44 77.69 4397.44 82.72"></polygon><polygon class="cls-27" points="4397.44 87.75 1786.59 610.84 1786.59 605.81 4397.44 82.72 4397.44 87.75"></polygon><polygon class="cls-15" points="4397.44 92.78 1786.59 615.87 1786.59 610.84 4397.44 87.75 4397.44 92.78"></polygon><polygon class="cls-15" points="4397.44 97.81 1786.59 620.9 1786.59 615.87 4397.44 92.78 4397.44 97.81"></polygon><polygon class="cls-94" points="4397.44 102.84 1786.59 625.93 1786.59 620.9 4397.44 97.81 4397.44 102.84"></polygon><polygon class="cls-53" points="4397.44 107.87 1786.59 630.96 1786.59 625.93 4397.44 102.84 4397.44 107.87"></polygon><polygon class="cls-50" points="4397.44 112.9 1786.59 635.98 1786.59 630.96 4397.44 107.87 4397.44 112.9"></polygon><polygon class="cls-31" points="4397.44 117.92 1786.59 641.01 1786.59 635.98 4397.44 112.9 4397.44 117.92"></polygon><polygon class="cls-72" points="4397.44 122.95 1786.59 646.04 1786.59 641.01 4397.44 117.92 4397.44 122.95"></polygon><polygon class="cls-64" points="4397.44 127.98 1786.59 651.07 1786.59 646.04 4397.44 122.95 4397.44 127.98"></polygon><polygon class="cls-19" points="4397.44 133.01 1786.59 656.1 1786.59 651.07 4397.44 127.98 4397.44 133.01"></polygon><polygon class="cls-65" points="4397.44 138.04 1786.59 661.13 1786.59 656.1 4397.44 133.01 4397.44 138.04"></polygon><polygon class="cls-10" points="4397.44 143.07 1786.59 666.16 1786.59 661.13 4397.44 138.04 4397.44 143.07"></polygon><polygon class="cls-37" points="4397.44 148.1 1786.59 671.19 1786.59 666.16 4397.44 143.07 4397.44 148.1"></polygon><polygon class="cls-37" points="4397.44 153.13 1786.59 676.22 1786.59 671.19 4397.44 148.1 4397.44 153.13"></polygon><polygon class="cls-28" points="4397.44 158.16 1786.59 681.24 1786.59 676.22 4397.44 153.13 4397.44 158.16"></polygon><polygon class="cls-35" points="4397.44 163.18 1786.59 686.27 1786.59 681.24 4397.44 158.16 4397.44 163.18"></polygon><polygon class="cls-30" points="4397.44 168.21 1786.59 691.3 1786.59 686.27 4397.44 163.18 4397.44 168.21"></polygon><polygon class="cls-33" points="4397.44 173.24 1786.59 696.33 1786.59 691.3 4397.44 168.21 4397.44 173.24"></polygon><polygon class="cls-63" points="4397.44 178.27 1786.59 701.36 1786.59 696.33 4397.44 173.24 4397.44 178.27"></polygon><polygon class="cls-71" points="4397.44 183.3 1786.59 706.39 1786.59 701.36 4397.44 178.27 4397.44 183.3"></polygon><polygon class="cls-61" points="4397.44 188.33 1786.59 711.42 1786.59 706.39 4397.44 183.3 4397.44 188.33"></polygon><polygon class="cls-49" points="4397.44 193.36 1786.59 716.45 1786.59 711.42 4397.44 188.33 4397.44 193.36"></polygon><polygon class="cls-40" points="4397.44 198.39 1786.59 721.48 1786.59 716.45 4397.44 193.36 4397.44 198.39"></polygon><polygon class="cls-40" points="4397.44 203.42 1786.59 726.51 1786.59 721.48 4397.44 198.39 4397.44 203.42"></polygon><polygon class="cls-74" points="4397.44 208.45 1786.59 731.53 1786.59 726.51 4397.44 203.42 4397.44 208.45"></polygon><polygon class="cls-41" points="4397.44 213.47 1786.59 736.56 1786.59 731.53 4397.44 208.45 4397.44 213.47"></polygon><polygon class="cls-45" points="4397.44 218.5 1786.59 741.59 1786.59 736.56 4397.44 213.47 4397.44 218.5"></polygon><polygon class="cls-12" points="4397.44 223.53 1786.59 746.62 1786.59 741.59 4397.44 218.5 4397.44 223.53"></polygon><polygon class="cls-77" points="4397.44 228.56 1786.59 751.65 1786.59 746.62 4397.44 223.53 4397.44 228.56"></polygon><polygon class="cls-44" points="4397.44 233.59 1786.59 756.68 1786.59 751.65 4397.44 228.56 4397.44 233.59"></polygon><polygon class="cls-32" points="4397.44 238.62 1786.59 761.71 1786.59 756.68 4397.44 233.59 4397.44 238.62"></polygon><polygon class="cls-32" points="4397.44 608.29 1786.59 1131.37 1786.59 761.71 4397.44 238.62 4397.44 608.29"></polygon><polygon class="cls-23" points="4397.44 977.95 1786.59 1501.04 1786.59 1131.37 4397.44 608.29 4397.44 977.95"></polygon><polygon class="cls-23" points="1786.59 1501.04 4397.44 977.95 4397.44 1656.79 1786.59 1656.79 1786.59 1501.04"></polygon></g></g></g><g><g class="cls-5"><polygon class="cls-85" points="2056.82 -370.89 2345.64 1221.36 -8.85 1648.48 -297.65 56.21 2056.82 -370.89"></polygon></g><g class="cls-3"><polygon class="cls-11" points="2020.17 -385.95 2338.03 1200.69 27.93 1663.49 -290 76.91 2020.17 -385.95"></polygon></g><path class="cls-82" d="m1979.21,638.77c-101.2,329.13-611.06,595.95-1138.57,595.95S-32.45,967.9,68.76,638.77C170.06,309.66,679.79,42.86,1207.39,42.86s873.15,266.81,771.82,595.92"></path><path class="cls-14" d="m471.81,349.49h168.18l133.35,599.64h-178.09l-22.37-122.66h-198.73l-64.68,122.66h-178.85L471.81,349.49Zm-30.58,351.15h108.47l-5.79-30.59c-6.64-36.51-14.85-86.2-20.77-127.6h-1.6c-19,39.77-43.89,88.62-65.4,130.04l-14.91,28.16Z"></path><path class="cls-14" d="m901.64,349.49h180.54c85.25,0,142.35,12.46,187.09,43.89,43.1,30.64,70.44,77.88,70.44,134.13,0,53.05-24.03,118.47-82.77,164.09-50.55,38.81-119.26,57.07-198.85,57.07h-56.25l-35.64,200.47h-170.54l105.98-599.64Zm176.33,269.98c32.34,0,51.4-7.45,66.28-19.88,12.46-10.74,24.85-29.84,24.85-56.28,0-22.41-8.3-36.51-23.12-45.57-15.79-9.95-39.01-12.41-61.38-12.41h-36.46l-24,134.14h53.83Z"></path><path class="cls-14" d="m1728.92,349.47h197.94l-283.23,327.14-48.07,272.51h-170.57l47.22-270.01-169.82-329.64h192.15l35.64,77.88c16.45,36.4,32.34,72.02,48.01,109.3h1.6c26.55-33.97,57.13-72.9,86.11-108.47l63.01-78.71Z"></path></g></svg> 