<?xml version="1.0" standalone="no"?>
<!DOCTYPE svg PUBLIC "-//W3C//DTD SVG 20010904//EN"
 "http://www.w3.org/TR/2001/REC-SVG-20010904/DTD/svg10.dtd">
<svg version="1.0" xmlns="http://www.w3.org/2000/svg"
 width="auto" height="200.000000pt" viewBox="0 0 1621.000000 381.000000"
 preserveAspectRatio="xMidYMid meet">
<metadata>
Created by potrace 1.16, written by Peter Selinger 2001-2019
</metadata>
<g transform="translate(0.000000,381.000000) scale(0.100000,-0.100000)"
fill="#000" stroke="none">
<path d="M398 3527 l-188 -51 0 -788 0 -788 190 0 190 0 1 443 c0 419 1 441
17 418 9 -14 123 -198 253 -410 l235 -386 133 0 133 0 239 430 239 430 0 -462
0 -463 195 0 195 0 -2 818 -3 817 -191 3 -191 2 -309 -555 c-170 -305 -311
-555 -314 -555 -3 0 -144 259 -315 575 -171 316 -312 574 -315 574 -3 0 -89
-24 -192 -52z"/>
<path d="M5065 3526 l-190 -51 -3 -788 -2 -787 195 0 195 0 2 537 3 538 425
-537 425 -537 198 0 197 -1 0 820 0 820 -192 -2 -193 -3 -5 -512 -5 -511 -425
534 c-234 294 -427 534 -430 533 -3 0 -90 -24 -195 -53z"/>
<path d="M3548 3516 c-103 -28 -191 -55 -197 -61 -11 -12 -771 -1566 -771
-1577 0 -4 89 -8 198 -8 l197 1 84 182 c308 671 495 1067 502 1060 4 -4 78
-156 163 -338 l155 -330 -232 -5 -232 -5 -67 -150 c-36 -82 -67 -156 -67 -162
-1 -10 84 -13 376 -15 l376 -3 50 -117 50 -118 204 0 c111 0 203 3 203 6 0 10
-791 1678 -798 1685 -4 3 -91 -17 -194 -45z"/>
<path d="M10655 3545 c-294 -55 -523 -212 -635 -435 -107 -215 -116 -524 -22
-749 102 -242 309 -402 611 -473 65 -15 131 -21 271 -23 l185 -4 60 -98 60
-98 228 -3 c125 -1 227 0 227 3 0 3 -43 73 -95 155 -52 82 -95 151 -95 153 0
2 33 25 74 51 92 58 199 171 248 262 20 38 49 110 64 159 26 84 28 102 28 265
-1 162 -3 182 -28 265 -39 127 -90 218 -171 304 -118 125 -257 201 -458 252
-111 28 -432 36 -552 14z m474 -360 c221 -53 331 -211 331 -475 0 -163 -51
-304 -134 -377 -75 -64 -67 -68 -157 72 l-81 125 -205 0 c-182 0 -204 -2 -199
-16 3 -8 42 -76 86 -151 44 -74 80 -139 80 -144 0 -11 -77 -3 -169 17 -245 55
-361 251 -330 559 25 242 151 370 399 405 89 12 301 4 379 -15z"/>
<path d="M12395 3512 l-170 -47 -3 -498 c-2 -410 0 -510 13 -570 41 -200 188
-367 396 -450 158 -63 286 -81 513 -74 207 7 331 34 475 103 174 85 298 239
336 419 12 57 15 174 15 608 l0 537 -192 -2 -193 -3 -5 -545 -5 -545 -31 -54
c-54 -95 -146 -142 -321 -162 -171 -19 -370 4 -471 55 -60 31 -95 68 -124 131
-23 50 -23 50 -26 598 -3 507 -4 547 -20 546 -9 0 -93 -22 -187 -47z"/>
<path d="M7135 3528 c-3 -7 -25 -80 -50 -163 -25 -82 -48 -158 -51 -167 -5
-17 26 -18 553 -18 520 0 561 -2 598 -19 72 -33 105 -93 105 -189 0 -74 -35
-147 -87 -182 l-36 -25 -369 -3 -368 -3 0 136 c0 125 -1 136 -17 131 -10 -3
-94 -26 -187 -51 -93 -25 -173 -48 -178 -51 -4 -3 -8 -234 -8 -515 l0 -509
195 0 195 0 0 255 0 255 258 -2 257 -3 170 -242 c94 -133 175 -247 181 -253 7
-7 87 -9 233 -8 l222 3 -192 260 c-105 143 -196 265 -201 271 -6 8 11 21 54
41 74 35 163 113 208 183 88 137 110 323 57 486 -47 142 -153 267 -280 328
-122 59 -125 60 -715 64 -441 3 -543 1 -547 -10z"/>
<path d="M9120 2720 l0 -820 195 0 195 0 0 820 0 820 -195 0 -195 0 0 -820z"/>
<path d="M14480 2720 l0 -820 733 0 733 0 47 168 c26 93 47 174 47 180 0 9
-144 12 -590 12 l-591 0 3 133 3 132 503 3 502 2 0 175 0 175 -502 2 -503 3
-3 147 -3 148 543 2 543 3 47 160 c26 88 47 168 48 178 0 16 -44 17 -780 17
l-780 0 0 -820z"/>
<path d="M10984 1293 l-91 -25 -207 -421 c-113 -232 -206 -425 -206 -429 0 -5
55 -8 123 -8 l123 0 135 291 c74 160 138 290 144 288 10 -4 145 -284 145 -300
0 -5 -49 -9 -108 -9 l-108 0 -32 -65 c-18 -36 -32 -70 -32 -75 0 -6 75 -10
199 -10 l198 0 26 -60 26 -60 111 0 c60 0 110 2 110 4 0 3 -97 206 -215 453
-157 327 -219 449 -232 450 -10 1 -59 -10 -109 -24z"/>
<path d="M6998 1220 l-98 -25 0 -271 c0 -306 4 -332 70 -407 44 -50 130 -98
210 -118 70 -18 249 -17 320 0 127 32 219 100 261 194 23 50 24 62 27 340 l3
287 -105 0 -105 0 -3 -278 c-3 -314 -3 -313 -81 -354 -37 -20 -57 -23 -157
-23 -100 0 -120 3 -157 23 -75 40 -77 49 -83 372 l-5 286 -97 -26z"/>
<path d="M3971 1204 c-73 -19 -130 -60 -166 -118 -26 -43 -30 -59 -30 -120 1
-111 48 -180 155 -230 40 -18 68 -21 235 -24 196 -3 256 -14 269 -49 8 -21 0
-30 -44 -53 -36 -18 -60 -20 -303 -20 l-265 0 -11 -42 c-6 -24 -17 -65 -26
-91 l-14 -48 332 3 c322 3 334 4 382 26 103 47 155 124 155 227 0 77 -24 129
-83 181 -67 59 -97 66 -322 73 -170 5 -205 9 -229 24 -33 22 -31 43 7 71 27
20 42 21 293 24 l264 3 25 82 c14 46 25 86 25 90 0 4 -134 7 -297 6 -226 0
-311 -4 -352 -15z"/>
<path d="M4845 1207 c-3 -6 -4 -188 -3 -402 l3 -390 394 0 395 0 27 87 27 88
-317 2 -316 3 -3 73 -3 72 256 0 255 0 0 90 0 90 -255 0 -255 0 0 60 0 60 292
2 291 3 23 67 c12 36 25 76 29 87 l6 21 -421 0 c-328 0 -422 -3 -425 -13z"/>
<path d="M6054 1210 c-68 -14 -111 -36 -163 -85 -90 -84 -131 -185 -131 -320
0 -202 114 -351 295 -384 34 -6 182 -11 347 -11 l288 0 0 205 c0 157 -3 205
-12 205 -7 0 -53 -11 -103 -23 l-90 -23 -3 -93 -3 -93 -177 4 c-167 3 -179 4
-210 26 -66 48 -102 170 -82 278 13 70 39 115 83 148 27 20 42 21 308 24 153
2 279 7 279 11 0 5 -11 37 -24 72 l-24 64 -268 1 c-148 1 -287 -2 -310 -6z"/>
<path d="M8086 1212 c-3 -6 -15 -40 -27 -77 -11 -37 -23 -74 -26 -81 -4 -12
42 -14 282 -14 l287 0 29 -29 c40 -40 41 -105 3 -150 l-26 -31 -189 0 -189 0
0 91 c0 81 -2 90 -17 85 -10 -2 -55 -14 -100 -26 l-83 -22 0 -274 0 -274 100
0 100 0 0 135 0 135 143 0 142 -1 94 -134 94 -135 93 0 c52 0 94 1 94 3 0 2
-45 63 -99 137 l-100 133 40 20 c45 22 95 76 117 126 9 21 16 66 16 106 1 120
-56 209 -164 259 -42 19 -66 21 -326 24 -178 2 -284 0 -288 -6z"/>
<path d="M9060 815 l0 -405 105 0 105 0 0 405 0 405 -105 0 -105 0 0 -405z"/>
<path d="M9596 1211 c-4 -5 -18 -39 -31 -75 l-25 -66 270 0 c300 0 319 -3 362
-61 98 -131 46 -387 -82 -413 -18 -3 -102 -6 -186 -6 l-154 0 0 196 c0 181 -1
195 -17 190 -10 -3 -57 -15 -105 -27 l-88 -21 0 -259 0 -259 288 0 c299 0 378
7 445 41 189 97 254 360 142 579 -32 62 -99 124 -170 157 l-60 28 -291 3
c-191 2 -294 0 -298 -7z"/>
<path d="M11717 1212 c-4 -5 -17 -39 -30 -75 l-25 -67 265 0 c203 0 271 -3
297 -14 108 -45 147 -251 71 -382 -43 -74 -57 -79 -257 -82 l-178 -4 0 195 0
194 -105 -26 -105 -25 2 -256 3 -255 325 0 325 0 60 28 c138 65 215 196 215
367 0 131 -44 235 -135 318 -89 82 -106 85 -436 90 -167 2 -289 0 -292 -6z"/>
</g>
</svg>
