<?xml version="1.0" standalone="no"?>
<!DOCTYPE svg PUBLIC "-//W3C//DTD SVG 20010904//EN"
 "http://www.w3.org/TR/2001/REC-SVG-20010904/DTD/svg10.dtd">
<svg version="1.0" xmlns="http://www.w3.org/2000/svg"
 width="839.000000pt" height="184.000000pt" viewBox="0 0 839.000000 184.000000"
 preserveAspectRatio="xMidYMid meet">
<metadata>
Created by potrace 1.16, written by Peter Selinger 2001-2019
</metadata>
<g transform="translate(0.000000,184.000000) scale(0.100000,-0.100000)"
fill="#000000" stroke="none">
<path d="M2760 840 l0 -690 65 0 65 0 2 530 3 529 495 -539 c272 -296 498
-539 503 -539 4 -1 7 268 7 597 l0 597 -62 40 c-34 22 -65 41 -70 43 -4 2 -9
-209 -10 -469 l-3 -472 -494 531 c-271 293 -495 532 -497 532 -2 0 -4 -310 -4
-690z"/>
<path d="M500 1255 l0 -245 -120 0 -120 0 0 -60 0 -60 120 0 120 0 0 -370 0
-370 70 0 70 0 0 370 0 370 298 0 c321 0 397 7 482 46 105 48 150 114 158 231
3 43 -1 91 -8 118 -16 58 -79 129 -142 161 -95 48 -152 54 -555 54 l-373 0 0
-245z m852 88 c64 -29 88 -70 88 -149 0 -47 -5 -69 -23 -94 -51 -77 -123 -90
-514 -90 l-263 0 0 181 0 180 333 -3 c317 -3 334 -4 379 -25z"/>
<path d="M2030 825 l0 -675 65 0 65 0 0 675 0 675 -65 0 -65 0 0 -675z"/>
<path d="M5820 825 l0 -675 480 0 480 0 0 65 0 65 -410 0 -410 0 0 305 0 305
340 0 340 0 0 60 0 60 -340 0 -340 0 0 180 0 180 400 0 400 0 0 65 0 65 -470
0 -470 0 0 -675z"/>
<path d="M7050 1435 l0 -65 235 0 235 0 0 -610 0 -610 70 0 70 0 0 610 0 610
230 0 230 0 0 65 0 65 -535 0 -535 0 0 -65z"/>
<path d="M4553 1367 l-63 -42 0 -587 0 -588 480 0 480 0 0 65 0 65 -410 0
-410 0 0 565 c0 311 -3 565 -7 564 -5 0 -36 -19 -70 -42z"/>
</g>
</svg>
